<?xml version="1.0" encoding="utf-8"?>

<svg version="1.1" id="Icons" xmlns="http://www.w3.org/2000/svg" xmlns:xlink="http://www.w3.org/1999/xlink" x="0px" y="0px"
	 viewBox="0 0 32 32" style="enable-background:new 0 0 32 32;" xml:space="preserve">
<g>
	<path d="M16,24c-0.3,0-0.5-0.1-0.7-0.3l-7-7c-1.7-1.8-1.7-4.6,0-6.4c0.8-0.8,2-1.3,3.2-1.3s2.3,0.5,3.2,1.3l1.3,1.4l1.3-1.4
		c0.8-0.8,2-1.3,3.2-1.3s2.3,0.5,3.2,1.3l0,0c1.7,1.8,1.7,4.6,0,6.4l-7,7C16.5,23.9,16.3,24,16,24z"/>
</g>
<path d="M26.8,12c0.5,2.1-0.1,4.5-1.7,6.1l-7,7C17.6,25.7,16.8,26,16,26s-1.6-0.3-2.1-0.9l-7-7c-1.6-1.7-2.2-4-1.7-6.1L2,9.9V23
	c0,2.8,2.2,5,5,5h18c2.8,0,5-2.2,5-5V9.9L26.8,12z"/>
<path d="M6.9,8.9C8.1,7.7,9.7,7,11.5,7c1.7,0,3.3,0.7,4.5,1.8C17.2,7.7,18.8,7,20.5,7c1.7,0,3.4,0.7,4.6,1.9
	c0.4,0.4,0.7,0.8,0.9,1.2l3.7-2.5C29.2,5.5,27.3,4,25,4H7C4.7,4,2.8,5.5,2.2,7.6L6,10.1C6.2,9.7,6.5,9.3,6.9,8.9z"/>
</svg>
